<svg id="Layer_1" data-name="Layer 1" xmlns="http://www.w3.org/2000/svg" xmlns:xlink="http://www.w3.org/1999/xlink" viewBox="0 0 146 146"><defs><style>.cls-1{fill:none;}.cls-2{clip-path:url(#clip-path);}.cls-3{fill:#403091;}.cls-4{fill:#4a429b;}.cls-5{fill:#8f4420;}.cls-6{fill:#dd6626;}.cls-7{fill:#ce6228;}.cls-8{fill:#d46427;}.cls-9{fill:url(#linear-gradient);}.cls-10{fill:#f37021;}.cls-11{fill:#bc5927;}.cls-12{fill:url(#linear-gradient-2);}.cls-13{fill:url(#linear-gradient-3);}</style><clipPath id="clip-path"><rect class="cls-1" x="-284" y="214" width="1920" height="459"/></clipPath><linearGradient id="linear-gradient" x1="-3229.91" y1="84.01" x2="-3190.66" y2="32.61" gradientTransform="matrix(-0.8, -0.6, -0.6, 0.8, -2472.93, -1920.79)" gradientUnits="userSpaceOnUse"><stop offset="0" stop-color="#f37021"/><stop offset="1" stop-color="#8d451f"/></linearGradient><linearGradient id="linear-gradient-2" x1="-3225.87" y1="93.95" x2="-3181.37" y2="93.95" gradientTransform="matrix(-1, 0, 0, 1, -3154.43, 0)" xlink:href="#linear-gradient"/><linearGradient id="linear-gradient-3" x1="-3244.74" y1="83.9" x2="-3283.8" y2="59.86" gradientTransform="matrix(-1, 0, 0, 1, -3154.43, 0)" xlink:href="#linear-gradient"/></defs><title>Prancheta 26</title><g class="cls-2"><polygon class="cls-3" points="-23.82 190.87 -181.76 -17.52 -175.22 -33.14 14.13 173.44 -23.82 190.87"/><path class="cls-4" d="M-598.6,677.78c-10.21-5.66-16.33-16.63-16.63-28.3l-2.8-107a62,62,0,0,0-35.83-54.6s-58.36-28.06-96.79-45C-774.76,432.22-802,387.34-802,387.34s-36.82-67.86-53.05-99.16-.95-61.93-.95-61.93L-705.66-75.29s18.14-39.51,61.25-36.28c86.48,0,387.3-.07,428.27-1.08,47.94-1.18,79.58,33.94,79.58,33.94S7.58,90.09,44.34,132.41,48.86,225,48.86,225L-56.31,409.46s-13.12,36.09-61.29,32.27l-211.87-16.84A49.86,49.86,0,0,0-372,443l-185.7,227a32.4,32.4,0,0,1-27.65,11.79A32.65,32.65,0,0,1-598.6,677.78ZM-.15,180.09-195.5-47.9l-451.95,1.08L-798.63,256.34l66,123.46s103.4,45.64,141.79,66,36.73,64,36.73,64l1.35,51.73,147.14-179.84.39-.47,11-13a32.38,32.38,0,0,1,27.25-11.31l254.42,20.21Z"/></g><polygon class="cls-5" points="26.95 91.36 57.52 89.95 60.42 89.95 27.43 92.38 26.95 91.36"/><polygon class="cls-5" points="21.01 78.7 29.39 96.56 17.56 86.6 21.01 78.7"/><path class="cls-6" d="M72.66,80.5l-54.45-8s3.46,6.34,5.08,6.18,53.57,6.92,53.57,6.92l-.66-1.49Z"/><polygon class="cls-7" points="88.39 33.19 72.66 80.5 77.78 85.58 97.85 26.44 88.39 33.19"/><polygon class="cls-5" points="81.5 91.7 135.48 60.93 133.16 53.47 76.4 83.84 81.5 91.7"/><polygon class="cls-8" points="126.97 57 101.81 28.77 102.57 26.44 132.24 54.05 126.97 57"/><polygon class="cls-6" points="126.97 57 112.23 86.36 122.31 87.62 136.13 51.78 126.97 57"/><polygon class="cls-5" points="83.15 82.04 116.32 84.87 79.97 88.89 83.15 82.04"/><rect class="cls-9" x="50.55" y="17.35" width="9.37" height="80.3" transform="translate(-23.48 44.85) rotate(-37.02)"/><polygon class="cls-8" points="84.23 26.44 36.19 32.27 32.24 27.58 85.25 21.73 84.23 26.44"/><polygon class="cls-5" points="77.04 27.28 19.38 64.95 44.69 51.26 86.54 24.88 77.04 27.28"/><polygon class="cls-5" points="67.11 91.87 53.91 118.67 60.51 117.65 75.3 88.07 67.11 91.87"/><path class="cls-10" d="M49.68,133.79A4.77,4.77,0,0,1,47,129.9l-1.63-15.39A9,9,0,0,0,39.54,107s-8.74-3.37-14.47-5.38c-3.6-1.26-8-7.42-8-7.42s-6.09-9.36-8.78-13.69a10.58,10.58,0,0,1-.85-8.91l18.22-45.2s2.17-5.91,8.42-5.93c12.47-1,55.84-4.45,61.73-5.07,6.9-.72,11.87,4,11.87,4s22.71,22.68,28.5,28.36,1.71,13.29,1.71,13.29l-13,27.81s-1.48,5.35-8.47,5.35H85.58a7.22,7.22,0,0,0-5.93,3.11L55.48,132.2a4.71,4.71,0,0,1-5.8,1.59Zm80.58-78.61L99.48,24.54,34.33,29.88,16,75.32,27,92.36s15.43,5.4,21.2,7.89,6,8.81,6,8.81L55,116.5,74.12,88.88l0-.07,1.44-2a4.68,4.68,0,0,1,3.8-1.94h36.91Z"/><path class="cls-10" d="M13.68,78.7a4.62,4.62,0,0,0,2.46-.7L98.27,27a4.69,4.69,0,0,0-4.94-8L11.2,70a4.69,4.69,0,0,0,2.48,8.67Z"/><path class="cls-10" d="M79.41,94.24A4.69,4.69,0,0,0,83.88,91l20.84-66.19A4.68,4.68,0,1,0,95.78,22L76.2,84.13,13.84,71.64A4.69,4.69,0,0,0,12,80.83L78.49,94.15A4.86,4.86,0,0,0,79.41,94.24Z"/><polygon class="cls-11" points="36.19 32.27 34.33 29.88 20.46 64.28 36.19 32.27"/><polygon class="cls-12" points="41.96 97.95 69.62 95.37 71.44 92.74 57.52 89.95 26.95 92.36 41.96 97.95"/><polygon class="cls-13" points="96.89 84.87 119.4 72.07 126.97 57 87.44 79.6 85.42 85.07 96.89 84.87"/></svg>