<svg id="Camada_1" data-name="Camada 1" xmlns="http://www.w3.org/2000/svg" xmlns:xlink="http://www.w3.org/1999/xlink" viewBox="0 0 77.88 35.26"><defs><style>.cls-1{fill:none;}.cls-2{clip-path:url(#clip-path);}.cls-3{fill:#fff;}.cls-4{fill:#8f4420;}.cls-5{fill:#dd6626;}.cls-6{fill:#ce6228;}.cls-7{fill:#d46427;}.cls-8{clip-path:url(#clip-path-2);}.cls-9{fill:url(#Gradiente_sem_nome);}.cls-10{fill:#f37021;}.cls-11{fill:#bc5927;}.cls-12{clip-path:url(#clip-path-4);}.cls-13{fill:url(#Gradiente_sem_nome_2);}.cls-14{clip-path:url(#clip-path-5);}.cls-15{fill:url(#Gradiente_sem_nome_3);}</style><clipPath id="clip-path"><rect class="cls-1" width="77.88" height="35.26"/></clipPath><clipPath id="clip-path-2"><rect class="cls-1" x="8.73" y="0.4" width="1.87" height="16.01" transform="translate(-3.11 7.51) rotate(-37.02)"/></clipPath><linearGradient id="Gradiente_sem_nome" y1="35.26" x2="1" y2="35.26" gradientTransform="translate(-445.17 15.06) rotate(-90) scale(12.9)" gradientUnits="userSpaceOnUse"><stop offset="0" stop-color="#f37021"/><stop offset="0.78" stop-color="#a44e1f"/><stop offset="1" stop-color="#8d441f"/></linearGradient><clipPath id="clip-path-4"><polygon class="cls-1" points="4.03 15.36 7.02 16.47 12.54 15.96 12.9 15.43 10.12 14.88 4.03 15.36"/></clipPath><linearGradient id="Gradiente_sem_nome_2" y1="35.26" y2="35.26" gradientTransform="translate(12.9 328.58) rotate(180) scale(8.87)" xlink:href="#Gradiente_sem_nome"/><clipPath id="clip-path-5"><polygon class="cls-1" points="16.09 12.81 15.69 13.9 17.97 13.86 22.46 11.31 23.97 8.3 16.09 12.81"/></clipPath><linearGradient id="Gradiente_sem_nome_3" y1="35.2" y2="35.2" gradientTransform="translate(15.79 -310.94) scale(9.15)" xlink:href="#Gradiente_sem_nome"/></defs><title>Prancheta 1</title><g class="cls-2"><path class="cls-3" d="M34.46,32.8a4,4,0,0,1,0,.53v1h-.43v-.9c0-.19,0-.34,0-.45a1.18,1.18,0,0,0,0-.25c0-.06-.06-.1-.11-.11a.45.45,0,0,0-.18,0h-.28a.21.21,0,0,0-.1.06.16.16,0,0,0,0,.12v1.54h-.43v-2h.43l.26,0h.29a1.1,1.1,0,0,1,.27,0,.48.48,0,0,1,.18.06,3.48,3.48,0,0,1,.38-.07H35a1.58,1.58,0,0,1,.34,0,.32.32,0,0,1,.2.14.73.73,0,0,1,.08.31,3.54,3.54,0,0,1,0,.52v1h-.44v-.9c0-.19,0-.34,0-.45a1.18,1.18,0,0,0,0-.25c0-.06-.06-.1-.11-.11a.42.42,0,0,0-.18,0h-.27a.21.21,0,0,0-.1.06.16.16,0,0,0,0,.12"/><path class="cls-3" d="M37,32.33a1.39,1.39,0,0,1,.32,0,.31.31,0,0,1,.19.12.57.57,0,0,1,.1.27,2.86,2.86,0,0,1,0,.46v1.13h-.44l-.25,0-.28,0a1.12,1.12,0,0,1-.29,0,.39.39,0,0,1-.19-.1.27.27,0,0,1-.1-.17.8.8,0,0,1,0-.28v-.06a.72.72,0,0,1,0-.27.27.27,0,0,1,.1-.18.38.38,0,0,1,.19-.09,1.12,1.12,0,0,1,.29,0h.28l.25,0a2.92,2.92,0,0,0,0-.32.47.47,0,0,0-.06-.19.16.16,0,0,0-.1-.08l-.17,0h-.47l-.22,0v-.28l.21,0H37Zm.2,1.77v-.66h-.43a.26.26,0,0,0-.21.07.34.34,0,0,0-.07.24.43.43,0,0,0,.06.27.27.27,0,0,0,.22.08Z"/><path class="cls-3" d="M38,34.34v-1c0-.22,0-.39,0-.52a.6.6,0,0,1,.09-.31.3.3,0,0,1,.19-.14,1.58,1.58,0,0,1,.34,0h.15a1.41,1.41,0,0,1,.25,0v.28l-.17,0h-.1a.45.45,0,0,0-.18,0,.16.16,0,0,0-.1.1.55.55,0,0,0-.05.22c0,.1,0,.23,0,.39v1Z"/><path class="cls-3" d="M39.45,31.36h.43v1.69l.18-.15.19-.17.17-.18a1.1,1.1,0,0,0,.14-.18h.55a1.42,1.42,0,0,1-.17.21,2.4,2.4,0,0,1-.22.24l-.23.22-.21.18a2.13,2.13,0,0,1,.26.26c.07.09.14.17.2.26s.13.19.19.28.11.2.18.32h-.5c0-.11-.1-.2-.15-.29s-.11-.18-.16-.27l-.19-.24-.23-.22v1h-.43Z"/><path class="cls-3" d="M42.86,34.34l-.21,0H42a1.48,1.48,0,0,1-.33,0,.36.36,0,0,1-.19-.13.48.48,0,0,1-.09-.27,2.77,2.77,0,0,1,0-.46v-.16a3.79,3.79,0,0,1,0-.52.6.6,0,0,1,.09-.31.28.28,0,0,1,.19-.14,1.52,1.52,0,0,1,.34,0h.27a1.58,1.58,0,0,1,.34,0,.28.28,0,0,1,.19.14.6.6,0,0,1,.09.31,3.79,3.79,0,0,1,0,.52v.16H41.83a2.58,2.58,0,0,0,0,.32.43.43,0,0,0,0,.19.19.19,0,0,0,.1.08l.17,0h.48l.21,0Zm-.34-1.13a2.45,2.45,0,0,0,0-.32.48.48,0,0,0,0-.19.19.19,0,0,0-.1-.08l-.17,0h0l-.17,0a.19.19,0,0,0-.1.08.48.48,0,0,0,0,.19,2.45,2.45,0,0,0,0,.32Z"/><path class="cls-3" d="M44.21,32.63l-.16,0h-.26v.75c0,.16,0,.29,0,.39a.66.66,0,0,0,.05.23.17.17,0,0,0,.1.1l.18,0h.1l.17,0v.28l-.25,0H44a1.05,1.05,0,0,1-.34,0,.28.28,0,0,1-.19-.14.59.59,0,0,1-.09-.3,4,4,0,0,1,0-.53V31.6h.43v.73h.43l.18,0v.28l-.19,0"/><path class="cls-3" d="M44.75,31.7a.31.31,0,0,1,0-.11.14.14,0,0,1,0-.07l.06,0h.31l.05,0s0,0,0,.07v.15a.3.3,0,0,1,0,.16.26.26,0,0,1-.15,0h-.12a.28.28,0,0,1-.15,0,.3.3,0,0,1,0-.16Zm0,.67h.44v2h-.44Z"/><path class="cls-3" d="M46.13,34.34h-.44v-2h.44l.25,0h.3a1.58,1.58,0,0,1,.34,0,.3.3,0,0,1,.19.14.71.71,0,0,1,.09.31c0,.13,0,.3,0,.52v1h-.43v-.9c0-.19,0-.34,0-.45a.73.73,0,0,0-.05-.25c0-.06,0-.1-.1-.11a.5.5,0,0,0-.19,0h-.27a.17.17,0,0,0-.1.06.16.16,0,0,0,0,.12Z"/><path class="cls-3" d="M48.84,35.26h-.43l-.18,0-.22,0v-.28l.22,0h.64a.19.19,0,0,0,.11-.09A.56.56,0,0,0,49,34.7c0-.08,0-.19,0-.33v0l-.28,0h-.32a1.29,1.29,0,0,1-.38,0,.37.37,0,0,1-.22-.14.68.68,0,0,1-.09-.32,3.91,3.91,0,0,1,0-.55c0-.22,0-.39,0-.52a.89.89,0,0,1,.09-.31.33.33,0,0,1,.19-.14,1.58,1.58,0,0,1,.34,0,2.24,2.24,0,0,1,.38,0l.3,0v0h.43v2a2.91,2.91,0,0,1,0,.47.85.85,0,0,1-.09.27.37.37,0,0,1-.2.12,1.39,1.39,0,0,1-.32,0m.21-2.43a.21.21,0,0,0,0-.12.2.2,0,0,0-.11-.06l-.2,0h-.19a.5.5,0,0,0-.19,0,.16.16,0,0,0-.1.11.76.76,0,0,0,0,.25c0,.11,0,.26,0,.45v.36a.44.44,0,0,0,0,.2.12.12,0,0,0,.1.08l.18,0h.22l.18,0A.2.2,0,0,0,49,34a.21.21,0,0,0,0-.11Z"/><path class="cls-3" d="M52.23,31.36h.44v3h-.44l-.27,0h-.33a1.26,1.26,0,0,1-.37,0A.34.34,0,0,1,51,34.2a.8.8,0,0,1-.1-.32c0-.13,0-.32,0-.55s0-.39,0-.52A.71.71,0,0,1,51,32.5a.3.3,0,0,1,.19-.14,1.58,1.58,0,0,1,.34,0,2.3,2.3,0,0,1,.38,0l.29,0Zm0,1.47a.16.16,0,0,0,0-.12.17.17,0,0,0-.1-.06l-.2,0h-.2a.45.45,0,0,0-.18,0s-.08,0-.1.11a.73.73,0,0,0,0,.25c0,.11,0,.26,0,.45a3.44,3.44,0,0,0,0,.36.69.69,0,0,0,0,.2.13.13,0,0,0,.1.08l.19,0h.21l.19,0a.17.17,0,0,0,.1-.06.15.15,0,0,0,0-.11Z"/><path class="cls-3" d="M53.13,31.7v-.11l0-.07.05,0h.31l.06,0a.14.14,0,0,1,0,.07.31.31,0,0,1,0,.11v0a.3.3,0,0,1,0,.16.28.28,0,0,1-.15,0h-.12a.24.24,0,0,1-.15,0,.3.3,0,0,1,0-.16Zm0,.67h.44v2h-.44Z"/><path class="cls-3" d="M55.13,35.26H54.7l-.18,0-.21,0v-.28l.21,0h.65a.18.18,0,0,0,.1-.09.39.39,0,0,0,0-.18,2.63,2.63,0,0,0,0-.33v0l-.28,0h-.32a1.34,1.34,0,0,1-.38,0,.34.34,0,0,1-.21-.14.8.8,0,0,1-.1-.32c0-.13,0-.32,0-.55a3.79,3.79,0,0,1,0-.52.6.6,0,0,1,.09-.31.3.3,0,0,1,.19-.14,1.58,1.58,0,0,1,.34,0,2.3,2.3,0,0,1,.38,0l.29,0v0h.44v2c0,.2,0,.35,0,.47a.66.66,0,0,1-.1.27.31.31,0,0,1-.19.12,1.48,1.48,0,0,1-.33,0m.21-2.43a.16.16,0,0,0,0-.12.17.17,0,0,0-.1-.06l-.2,0h-.2a.45.45,0,0,0-.18,0s-.08,0-.1.11a.73.73,0,0,0-.05.25c0,.11,0,.26,0,.45a3.44,3.44,0,0,0,0,.36.69.69,0,0,0,0,.2.13.13,0,0,0,.1.08l.19,0H55l.19,0a.17.17,0,0,0,.1-.06.15.15,0,0,0,0-.11Z"/><path class="cls-3" d="M56.23,31.7c0-.05,0-.09,0-.11a.14.14,0,0,1,0-.07l.06,0h.31l.06,0a.14.14,0,0,1,0,.07s0,.06,0,.11v0a.22.22,0,0,1,0,.16.24.24,0,0,1-.15,0h-.11a.24.24,0,0,1-.15,0,.22.22,0,0,1,0-.16Zm0,.67h.43v2h-.43Z"/><path class="cls-3" d="M58,32.63l-.16,0h-.26v.75c0,.16,0,.29,0,.39a.68.68,0,0,0,0,.23.21.21,0,0,0,.11.1l.18,0H58l.17,0v.28l-.25,0H57.8a1,1,0,0,1-.34,0,.32.32,0,0,1-.2-.14.72.72,0,0,1-.08-.3,3.7,3.7,0,0,1,0-.53V31.6h.44v.73H58l.17,0v.28l-.18,0"/><path class="cls-3" d="M59.45,32.33a1.39,1.39,0,0,1,.32,0,.34.34,0,0,1,.2.12.71.71,0,0,1,.09.27,2.86,2.86,0,0,1,0,.46v1.13h-.43l-.26,0-.28,0a1.17,1.17,0,0,1-.29,0,.39.39,0,0,1-.19-.1.32.32,0,0,1-.1-.17,1.14,1.14,0,0,1,0-.28v-.06a1,1,0,0,1,0-.27.32.32,0,0,1,.1-.18.38.38,0,0,1,.19-.09,1.17,1.17,0,0,1,.29,0h.28l.26,0c0-.13,0-.24,0-.32a.74.74,0,0,0,0-.19.18.18,0,0,0-.11-.08l-.17,0h-.47l-.22,0v-.28l.22,0h.61Zm.21,1.77v-.66h-.44a.29.29,0,0,0-.21.07.4.4,0,0,0-.07.24A.43.43,0,0,0,59,34a.27.27,0,0,0,.22.08Z"/><rect class="cls-3" x="60.55" y="31.36" width="0.44" height="2.97"/><polygon class="cls-4" points="4.03 15.16 10.12 14.88 10.7 14.88 4.12 15.36 4.03 15.16"/><polygon class="cls-4" points="2.84 12.63 4.51 16.19 2.15 14.21 2.84 12.63"/><path class="cls-5" d="M13.14,13,2.28,11.4s.69,1.26,1,1.23S14,14,14,14l-.13-.29Z"/><polygon class="cls-6" points="16.28 3.55 13.14 12.99 14.16 14 18.17 2.21 16.28 3.55"/><polygon class="cls-4" points="14.9 15.22 25.67 9.09 25.21 7.6 13.89 13.66 14.9 15.22"/><polygon class="cls-7" points="23.97 8.3 18.95 2.67 19.11 2.21 25.02 7.72 23.97 8.3"/><polygon class="cls-5" points="23.97 8.3 21.04 14.16 23.05 14.41 25.8 7.26 23.97 8.3"/><polygon class="cls-4" points="15.23 13.3 21.85 13.86 14.6 14.66 15.23 13.3"/></g><g class="cls-8"><rect class="cls-9" x="1.02" y="-0.5" width="17.29" height="17.81" transform="translate(-3.12 7.59) rotate(-37.36)"/></g><g class="cls-2"><polygon class="cls-7" points="15.45 2.21 5.87 3.37 5.08 2.44 15.65 1.27 15.45 2.21"/><polygon class="cls-4" points="14.02 2.38 2.52 9.89 7.56 7.16 15.91 1.9 14.02 2.38"/><polygon class="cls-4" points="12.04 15.26 9.4 20.61 10.72 20.4 13.67 14.5 12.04 15.26"/><path class="cls-10" d="M8.56,23.62A.94.94,0,0,1,8,22.84l-.33-3.07a1.8,1.8,0,0,0-1.15-1.49s-1.75-.67-2.89-1.07A5,5,0,0,1,2,15.73S.83,13.86.29,13a2.11,2.11,0,0,1-.17-1.78l3.64-9A1.88,1.88,0,0,1,5.44,1C7.92.83,16.57.14,17.75,0a3.25,3.25,0,0,1,2.37.8L25.8,6.47a2.32,2.32,0,0,1,.34,2.65l-2.6,5.54a1.65,1.65,0,0,1-1.69,1.07H15.72a1.43,1.43,0,0,0-1.18.62l-4.82,7a.93.93,0,0,1-.77.4.91.91,0,0,1-.39-.08M24.63,7.94,18.49,1.83,5.5,2.89,1.84,12,4,15.36s3.07,1.07,4.22,1.57a2.11,2.11,0,0,1,1.2,1.76l.16,1.48,3.82-5.51h0l.29-.4a1,1,0,0,1,.76-.39h7.36Z"/><path class="cls-10" d="M1.38,12.63a.87.87,0,0,0,.49-.14L18.25,2.31a.94.94,0,1,0-1-1.59L.88,10.9a1,1,0,0,0-.3,1.29.94.94,0,0,0,.8.44"/><path class="cls-10" d="M14.49,15.73a.93.93,0,0,0,.89-.65l4.16-13.2a.94.94,0,1,0-1.79-.56l-3.9,12.39L1.41,11.22A.94.94,0,0,0,1,13.06L14.3,15.71a.65.65,0,0,0,.19,0"/><polygon class="cls-11" points="5.87 3.37 5.5 2.89 2.73 9.76 5.87 3.37"/></g><g class="cls-12"><rect class="cls-13" x="4.02" y="14.88" width="8.87" height="1.59"/></g><g class="cls-14"><rect class="cls-15" x="14.83" y="6.55" width="9.99" height="9.11" transform="translate(-2.88 12.04) rotate(-31.61)"/></g><path class="cls-3" d="M19.35,22.71l-.62-.06-.53,0h-.51v3c0,.65,0,1.17,0,1.56a2.34,2.34,0,0,0,.18.89.76.76,0,0,0,.41.4,2.3,2.3,0,0,0,.72.09l.38,0a6.91,6.91,0,0,0,.68-.14v1.12a6.3,6.3,0,0,1-1,.14l-.59,0a5.31,5.31,0,0,1-1.35-.14A1.27,1.27,0,0,1,16.4,29a3,3,0,0,1-.35-1.2,19.37,19.37,0,0,1-.09-2.1v-7h1.73v2.89l.6,0,.55,0,.57,0c.2,0,.43,0,.69.07V22.8l-.75-.09"/><path class="cls-3" d="M21.62,29.57V25.51a19.16,19.16,0,0,1,.09-2.09,3,3,0,0,1,.35-1.2,1.23,1.23,0,0,1,.77-.56,5.31,5.31,0,0,1,1.35-.14l.59,0a5.3,5.3,0,0,1,1,.14V22.8c-.29-.08-.52-.12-.68-.15l-.38,0a2,2,0,0,0-.72.1.73.73,0,0,0-.41.4,2.33,2.33,0,0,0-.18.88c0,.39,0,.91,0,1.56v4Z"/><path class="cls-3" d="M30.56,21.52a5.65,5.65,0,0,1,1.29.12,1.28,1.28,0,0,1,.77.49A2.4,2.4,0,0,1,33,23.21a15.58,15.58,0,0,1,.13,1.84v4.59H31.39v-.17l-1,.13a9.16,9.16,0,0,1-1.11.07,4.78,4.78,0,0,1-1.17-.12,1.65,1.65,0,0,1-.75-.37,1.47,1.47,0,0,1-.41-.71,4.16,4.16,0,0,1-.12-1.09v-.24a4.21,4.21,0,0,1,.12-1.09,1.47,1.47,0,0,1,.41-.71A1.65,1.65,0,0,1,28.1,25a5.4,5.4,0,0,1,1.17-.11,9.29,9.29,0,0,1,1.11.06l1,.13c0-.54,0-1-.07-1.29a2,2,0,0,0-.21-.74.7.7,0,0,0-.41-.33,2.92,2.92,0,0,0-.67-.07h-.6l-.6,0-.69.05-.85.11V21.68l.84-.1.73,0,.75,0Zm.83,7V26H29.65a1.11,1.11,0,0,0-.84.25,1.61,1.61,0,0,0-.26.95,1.87,1.87,0,0,0,.23,1.11,1.07,1.07,0,0,0,.87.29Z"/><path class="cls-3" d="M36.46,29.64H34.74v-8h1.72v0a8.8,8.8,0,0,1,1-.14c.36,0,.76-.05,1.17-.05a5.42,5.42,0,0,1,1.35.14,1.27,1.27,0,0,1,.78.55,3.11,3.11,0,0,1,.35,1.21,19.16,19.16,0,0,1,.09,2.09v4.13H39.48V26c0-.76,0-1.35,0-1.8a3.24,3.24,0,0,0-.17-1,.72.72,0,0,0-.41-.44,2.17,2.17,0,0,0-.74-.1l-.56,0L37,22.7a.57.57,0,0,0-.41.23.66.66,0,0,0-.16.46Z"/><path class="cls-3" d="M46.14,28.56a1.07,1.07,0,0,0,.73-.18,1.09,1.09,0,0,0,.18-.74,1,1,0,0,0-.31-.76A2.72,2.72,0,0,0,46,26.4c-.31-.13-.65-.26-1-.38a4.48,4.48,0,0,1-1-.46,2.72,2.72,0,0,1-.78-.73,2.05,2.05,0,0,1-.31-1.2,4.48,4.48,0,0,1,.1-1.06,1.16,1.16,0,0,1,.39-.64,1.68,1.68,0,0,1,.8-.32,7.91,7.91,0,0,1,1.33-.09h.76l.67,0,.67.05.77.08V22.8l-.85-.11-.69-.05-.6,0h-.73a1,1,0,0,0-.71.24,1.11,1.11,0,0,0-.19.72,1,1,0,0,0,.31.74,3.11,3.11,0,0,0,.79.47c.31.13.65.25,1,.37a5.44,5.44,0,0,1,1,.45,2.42,2.42,0,0,1,.79.7,2,2,0,0,1,.31,1.14,4.66,4.66,0,0,1-.11,1.08,1.46,1.46,0,0,1-.39.69,1.67,1.67,0,0,1-.77.35,7,7,0,0,1-1.24.1h-1.1l-.66,0c-.21,0-.43,0-.65-.05l-.77-.08V28.39l.86.1.68.06h1.51Z"/><path class="cls-3" d="M56.61,23.39a17.35,17.35,0,0,1,.1,2.12v4.13H55V26c0-.76,0-1.35,0-1.8a3.24,3.24,0,0,0-.17-1,.69.69,0,0,0-.41-.44,2.13,2.13,0,0,0-.74-.1l-.55,0a5,5,0,0,0-.54.06.59.59,0,0,0-.41.23.71.71,0,0,0-.15.46v6.25H50.24v-8H52v0a8.61,8.61,0,0,1,1-.14c.37,0,.76-.05,1.17-.05a6.39,6.39,0,0,1,1.06.07,1.87,1.87,0,0,1,.72.27,12.79,12.79,0,0,1,1.51-.28c.42,0,.83-.06,1.25-.06a5.39,5.39,0,0,1,1.34.14,1.22,1.22,0,0,1,.77.55,2.94,2.94,0,0,1,.36,1.21,19.59,19.59,0,0,1,.08,2.09v4.13H59.52V26c0-.76,0-1.35,0-1.8a3.52,3.52,0,0,0-.18-1,.68.68,0,0,0-.4-.44,2.13,2.13,0,0,0-.74-.1l-.55,0-.53.06a.49.49,0,0,0-.37.23.64.64,0,0,0-.1.46"/><rect class="cls-3" x="62.99" y="21.68" width="1.73" height="7.96"/><path class="cls-3" d="M70,22.71l-.61-.06-.54,0h-.51v3c0,.65,0,1.17,0,1.56a2.81,2.81,0,0,0,.18.89.8.8,0,0,0,.41.4,2.37,2.37,0,0,0,.73.09l.37,0a6.37,6.37,0,0,0,.68-.14v1.12a6,6,0,0,1-1,.14l-.59,0a5.42,5.42,0,0,1-1.35-.14A1.24,1.24,0,0,1,67,29a2.84,2.84,0,0,1-.36-1.2c-.05-.53-.08-1.22-.08-2.1V19.8h1.72v1.72l.6,0,.55,0,.57,0c.21,0,.44,0,.69.07V22.8L70,22.71"/><path class="cls-3" d="M75.32,21.52a5.74,5.74,0,0,1,1.3.12,1.26,1.26,0,0,1,.76.49,2.52,2.52,0,0,1,.38,1.08,14,14,0,0,1,.12,1.84v4.59H76.15v-.17l-1,.13a9.33,9.33,0,0,1-1.12.07,4.78,4.78,0,0,1-1.17-.12,1.65,1.65,0,0,1-.75-.37,1.46,1.46,0,0,1-.4-.71,4.16,4.16,0,0,1-.12-1.09v-.24a4.21,4.21,0,0,1,.12-1.09,1.46,1.46,0,0,1,.4-.71,1.65,1.65,0,0,1,.75-.37A5.4,5.4,0,0,1,74,24.86a9.47,9.47,0,0,1,1.12.06l1,.13c0-.54,0-1-.07-1.29a2,2,0,0,0-.21-.74.68.68,0,0,0-.4-.33,3,3,0,0,0-.67-.07h-.61l-.6,0-.69.05-.85.11V21.68l.85-.1.72,0,.75,0Zm.83,7V26H74.41a1.13,1.13,0,0,0-.84.25,1.61,1.61,0,0,0-.26.95,2,2,0,0,0,.23,1.11,1.09,1.09,0,0,0,.87.29Z"/><rect class="cls-3" x="62.99" y="19.8" width="1.72" height="1.28"/><rect class="cls-1" width="77.88" height="35.26"/></svg>