<svg id="Layer_1" data-name="Layer 1" xmlns="http://www.w3.org/2000/svg" xmlns:xlink="http://www.w3.org/1999/xlink" viewBox="0 0 232.33 110.5"><defs><style>.cls-1{fill:none;}.cls-2{fill:#939598;}.cls-3{fill:#8f4420;}.cls-4{fill:#dd6626;}.cls-5{fill:#ce6228;}.cls-6{fill:#d46427;}.cls-7{fill:url(#linear-gradient);}.cls-8{fill:#f37021;}.cls-9{fill:#bc5927;}.cls-10{fill:url(#linear-gradient-2);}.cls-11{fill:url(#linear-gradient-3);}.cls-12{fill:#414042;}.cls-13{clip-path:url(#clip-path);}.cls-14{fill:#3d2f8f;}.cls-15{fill:#403091;}.cls-16{fill:#4a429b;}</style><linearGradient id="linear-gradient" x1="-2631.88" y1="42.55" x2="-2611.02" y2="15.23" gradientTransform="matrix(-0.8, -0.6, -0.6, 0.8, -2041.03, -1572.3)" gradientUnits="userSpaceOnUse"><stop offset="0" stop-color="#f37021"/><stop offset="1" stop-color="#8d451f"/></linearGradient><linearGradient id="linear-gradient-2" x1="-2629.73" y1="47.83" x2="-2606.08" y2="47.83" gradientTransform="matrix(-1, 0, 0, 1, -2586.43, 0)" xlink:href="#linear-gradient"/><linearGradient id="linear-gradient-3" x1="-2639.76" y1="42.49" x2="-2660.52" y2="29.72" gradientTransform="matrix(-1, 0, 0, 1, -2586.43, 0)" xlink:href="#linear-gradient"/><clipPath id="clip-path"><rect class="cls-1" y="174.15" width="1920" height="459"/></clipPath></defs><title>Prancheta 25</title><path class="cls-2" d="M100.76,93.47a13.5,13.5,0,0,1,.06,1.42v2.68H99.67V95.19q0-.76,0-1.2a2.46,2.46,0,0,0-.12-.68.46.46,0,0,0-.27-.29,1.4,1.4,0,0,0-.5-.07h-.37L98,93a.37.37,0,0,0-.28.15.52.52,0,0,0-.1.31v4.1H96.49V92.32h1.16v0a6.05,6.05,0,0,1,.67-.09,6.63,6.63,0,0,1,.79,0,4.73,4.73,0,0,1,.71.05,1.15,1.15,0,0,1,.48.18,8.76,8.76,0,0,1,1-.18,7.89,7.89,0,0,1,.84-.05,3.19,3.19,0,0,1,.9.1.83.83,0,0,1,.52.37,1.82,1.82,0,0,1,.23.81,13,13,0,0,1,.06,1.4v2.68h-1.15V95.19q0-.76,0-1.2a2.46,2.46,0,0,0-.12-.68.46.46,0,0,0-.27-.29,1.34,1.34,0,0,0-.49-.07h-.37l-.36.05a.32.32,0,0,0-.25.15A.45.45,0,0,0,100.76,93.47Z"/><path class="cls-2" d="M107.41,92.21a4,4,0,0,1,.86.08.87.87,0,0,1,.52.34,1.63,1.63,0,0,1,.25.71,9.62,9.62,0,0,1,.08,1.24v3H108v0l-.67.08a5.66,5.66,0,0,1-.75,0,3.46,3.46,0,0,1-.78-.07,1,1,0,0,1-.5-.25,1.06,1.06,0,0,1-.28-.47,3,3,0,0,1-.08-.74V96a3,3,0,0,1,.08-.73,1,1,0,0,1,.28-.47,1,1,0,0,1,.5-.25,3.4,3.4,0,0,1,.78-.08,5.54,5.54,0,0,1,.75,0l.67.08c0-.36,0-.65,0-.87a1.6,1.6,0,0,0-.14-.49.47.47,0,0,0-.28-.22,1.75,1.75,0,0,0-.45,0h-.8l-.46,0-.58.07v-.75l.57-.06.49,0h1.14Zm.55,4.73V95.19H106.8a.75.75,0,0,0-.56.17,1,1,0,0,0-.18.63,1.31,1.31,0,0,0,.15.75.73.73,0,0,0,.59.2Z"/><path class="cls-2" d="M110.27,97.57V94.89a13,13,0,0,1,.06-1.4,1.82,1.82,0,0,1,.23-.81.84.84,0,0,1,.51-.37,3.22,3.22,0,0,1,.91-.1h.4a3.94,3.94,0,0,1,.66.1v.75l-.46-.1-.25,0a1.25,1.25,0,0,0-.48.07.49.49,0,0,0-.28.27,1.83,1.83,0,0,0-.12.59c0,.26,0,.61,0,1v2.65Z"/><path class="cls-2" d="M114.05,89.64h1.15v4.5q.22-.17.48-.39l.5-.45c.16-.16.32-.32.46-.49a3.84,3.84,0,0,0,.38-.49h1.47a4,4,0,0,1-.45.58c-.19.21-.38.41-.59.62l-.63.59c-.21.19-.39.34-.55.47.25.24.48.47.68.7s.38.47.55.71a8.6,8.6,0,0,1,.49.74c.16.26.31.54.48.84h-1.32c-.13-.27-.27-.53-.41-.78a8.18,8.18,0,0,0-.43-.7,7.38,7.38,0,0,0-.5-.64,6.86,6.86,0,0,0-.61-.59v2.71h-1.15Z"/><path class="cls-2" d="M123.15,97.57l-.57.06a4,4,0,0,1-.49,0H121a3.52,3.52,0,0,1-.87-.08.82.82,0,0,1-.51-.33,1.63,1.63,0,0,1-.25-.71,9.75,9.75,0,0,1-.08-1.24v-.42a13,13,0,0,1,.06-1.4,2.12,2.12,0,0,1,.23-.81.83.83,0,0,1,.52-.37,3.1,3.1,0,0,1,.9-.1h.73a3.19,3.19,0,0,1,.9.1.83.83,0,0,1,.52.37,1.82,1.82,0,0,1,.23.81,13,13,0,0,1,.06,1.4v.42h-3c0,.36,0,.65,0,.87a1.37,1.37,0,0,0,.14.49.47.47,0,0,0,.28.22,1.75,1.75,0,0,0,.45,0h.8l.46,0,.58-.07Zm-.91-3c0-.36,0-.65,0-.86a1.37,1.37,0,0,0-.14-.49.48.48,0,0,0-.27-.22,1.87,1.87,0,0,0-.45,0h0a1.75,1.75,0,0,0-.45,0,.47.47,0,0,0-.28.22,1.37,1.37,0,0,0-.14.49c0,.21,0,.5,0,.86Z"/><path class="cls-2" d="M126.73,93l-.41,0h-.7v2c0,.43,0,.78,0,1a1.59,1.59,0,0,0,.12.59.48.48,0,0,0,.27.27,1.55,1.55,0,0,0,.49.07l.25,0a3.26,3.26,0,0,0,.46-.09v.75a3,3,0,0,1-.67.09h-.39a3.71,3.71,0,0,1-.91-.09.84.84,0,0,1-.51-.37,1.94,1.94,0,0,1-.24-.81,13,13,0,0,1-.06-1.4V90.28h1.16v1.93h.4l.37,0,.39,0,.46,0v.75Z"/><path class="cls-2" d="M128.18,90.54a2.54,2.54,0,0,1,0-.3.46.46,0,0,1,.07-.17.22.22,0,0,1,.15-.08.94.94,0,0,1,.26,0H129a1,1,0,0,1,.26,0,.22.22,0,0,1,.14.08.27.27,0,0,1,.07.17,2.54,2.54,0,0,1,0,.3v.1a.64.64,0,0,1-.09.42.58.58,0,0,1-.39.09h-.31a.6.6,0,0,1-.4-.09.64.64,0,0,1-.09-.42Zm.06,7V92.32h1.16v5.25Z"/><path class="cls-2" d="M131.85,97.57H130.7V92.32h1.15v0a6.05,6.05,0,0,1,.67-.09,6.63,6.63,0,0,1,.79,0,3.22,3.22,0,0,1,.91.1.86.86,0,0,1,.52.37,2.12,2.12,0,0,1,.23.81,13,13,0,0,1,.06,1.4v2.68h-1.15V95.19q0-.76,0-1.2a2.46,2.46,0,0,0-.12-.68.46.46,0,0,0-.27-.29A1.4,1.4,0,0,0,133,93h-.37l-.36.05a.37.37,0,0,0-.28.15.52.52,0,0,0-.1.31Z"/><path class="cls-2" d="M139.07,100h-1.14l-.49,0-.57-.07v-.75c.22,0,.41.06.58.07l.46,0h.81a1.36,1.36,0,0,0,.44-.05.43.43,0,0,0,.28-.22,1.25,1.25,0,0,0,.14-.49c0-.21,0-.5,0-.87v-.09l-.73.08c-.28,0-.56,0-.86,0a4.53,4.53,0,0,1-1-.09.93.93,0,0,1-.57-.38,1.94,1.94,0,0,1-.26-.84,13.71,13.71,0,0,1-.07-1.47,13,13,0,0,1,.06-1.4,1.94,1.94,0,0,1,.24-.81.84.84,0,0,1,.51-.37,3.22,3.22,0,0,1,.91-.1,7.68,7.68,0,0,1,1,.06,3.6,3.6,0,0,1,.78.15v-.1h1.16v5.34a9.49,9.49,0,0,1-.08,1.24,1.73,1.73,0,0,1-.25.72.82.82,0,0,1-.51.33A4.09,4.09,0,0,1,139.07,100Zm.55-6.49a.48.48,0,0,0-.1-.31.44.44,0,0,0-.27-.16l-.53-.09a4.45,4.45,0,0,0-.53,0,1.3,1.3,0,0,0-.49.07.5.5,0,0,0-.28.29,2.1,2.1,0,0,0-.11.67q0,.45,0,1.2c0,.41,0,.73,0,1a1.45,1.45,0,0,0,.11.52.37.37,0,0,0,.27.22,2,2,0,0,0,.49,0l.58,0,.5-.06a.43.43,0,0,0,.27-.15.48.48,0,0,0,.1-.31Z"/><path class="cls-2" d="M148.12,89.64h1.15v7.93h-1.15l-.74.08c-.27,0-.56,0-.86,0a4.53,4.53,0,0,1-1-.09.93.93,0,0,1-.57-.38,1.94,1.94,0,0,1-.26-.84,13.71,13.71,0,0,1-.07-1.47,13,13,0,0,1,.06-1.4,1.94,1.94,0,0,1,.24-.81.84.84,0,0,1,.51-.37,3.22,3.22,0,0,1,.91-.1,7.68,7.68,0,0,1,1,.06,3.83,3.83,0,0,1,.79.15Zm0,3.9a.49.49,0,0,0-.11-.31.41.41,0,0,0-.27-.16l-.53-.09a4.45,4.45,0,0,0-.53,0,1.3,1.3,0,0,0-.49.07.46.46,0,0,0-.27.29,2.06,2.06,0,0,0-.12.67q0,.45,0,1.2c0,.41,0,.73,0,1a1.45,1.45,0,0,0,.11.52.39.39,0,0,0,.27.22,2,2,0,0,0,.49,0l.58,0,.5-.06a.4.4,0,0,0,.27-.15.49.49,0,0,0,.11-.31Z"/><path class="cls-2" d="M150.5,90.54a2.23,2.23,0,0,1,0-.3.34.34,0,0,1,.06-.17.24.24,0,0,1,.15-.08,1,1,0,0,1,.26,0h.31a1,1,0,0,1,.26,0,.22.22,0,0,1,.15.08.34.34,0,0,1,.06.17,2.23,2.23,0,0,1,0,.3v.1a.64.64,0,0,1-.09.42.6.6,0,0,1-.4.09H151a.61.61,0,0,1-.4-.09.64.64,0,0,1-.09-.42Zm.07,7V92.32h1.15v5.25Z"/><path class="cls-2" d="M155.85,100h-1.14l-.49,0-.57-.07v-.75l.57.07.46,0h.81a1.39,1.39,0,0,0,.45-.05.43.43,0,0,0,.28-.22,1.45,1.45,0,0,0,.14-.49c0-.21,0-.5,0-.87v-.09c-.22,0-.46.06-.74.08s-.55,0-.85,0a4.53,4.53,0,0,1-1-.09.93.93,0,0,1-.57-.38,1.94,1.94,0,0,1-.26-.84,11.5,11.5,0,0,1-.07-1.47,13,13,0,0,1,.06-1.4,1.94,1.94,0,0,1,.24-.81.81.81,0,0,1,.51-.37,3.22,3.22,0,0,1,.91-.1,7.79,7.79,0,0,1,1,.06,3.6,3.6,0,0,1,.78.15v-.1h1.16v5.34a9.49,9.49,0,0,1-.08,1.24,1.73,1.73,0,0,1-.25.72.84.84,0,0,1-.52.33A4,4,0,0,1,155.85,100Zm.55-6.49a.48.48,0,0,0-.1-.31.47.47,0,0,0-.27-.16l-.54-.09a4.28,4.28,0,0,0-.52,0,1.3,1.3,0,0,0-.49.07.45.45,0,0,0-.28.29,2.1,2.1,0,0,0-.11.67q0,.45,0,1.2c0,.41,0,.73,0,1a1.26,1.26,0,0,0,.11.52.37.37,0,0,0,.27.22,2,2,0,0,0,.49,0l.58,0,.5-.06a.46.46,0,0,0,.27-.15.48.48,0,0,0,.1-.31Z"/><path class="cls-2" d="M158.78,90.54a2.23,2.23,0,0,1,0-.3.34.34,0,0,1,.06-.17A.22.22,0,0,1,159,90a1,1,0,0,1,.26,0h.31a1,1,0,0,1,.26,0,.28.28,0,0,1,.15.08.34.34,0,0,1,.06.17,2.23,2.23,0,0,1,0,.3v.1a.63.63,0,0,1-.1.42.58.58,0,0,1-.39.09h-.31a.6.6,0,0,1-.4-.09.64.64,0,0,1-.09-.42Zm.06,7V92.32H160v5.25Z"/><path class="cls-2" d="M163.5,93l-.41,0h-.7v2c0,.43,0,.78,0,1a1.41,1.41,0,0,0,.12.59.45.45,0,0,0,.27.27,1.55,1.55,0,0,0,.49.07l.25,0a3.26,3.26,0,0,0,.46-.09v.75a3,3,0,0,1-.67.09H163a3.71,3.71,0,0,1-.91-.09.81.81,0,0,1-.51-.37,1.94,1.94,0,0,1-.24-.81,13,13,0,0,1-.06-1.4V90.28h1.16v1.93h.4l.37,0,.38,0,.47,0v.75Z"/><path class="cls-2" d="M167.35,92.21a4,4,0,0,1,.86.08.9.9,0,0,1,.52.34,1.63,1.63,0,0,1,.25.71,11.86,11.86,0,0,1,.08,1.24v3H167.9v0l-.67.08a5.66,5.66,0,0,1-.75,0,3.35,3.35,0,0,1-.78-.07,1.11,1.11,0,0,1-.51-.25,1,1,0,0,1-.27-.47,3,3,0,0,1-.08-.74V96a3,3,0,0,1,.08-.73,1,1,0,0,1,.27-.47,1.11,1.11,0,0,1,.51-.25,3.28,3.28,0,0,1,.78-.08,5.54,5.54,0,0,1,.75,0l.67.08a6.58,6.58,0,0,0-.05-.87,1.38,1.38,0,0,0-.13-.49.47.47,0,0,0-.28-.22,1.75,1.75,0,0,0-.45,0h-.81l-.46,0-.57.07v-.75l.57-.06.49,0h1.14Zm.55,4.73V95.19h-1.16a.78.78,0,0,0-.57.17A1.06,1.06,0,0,0,166,96a1.31,1.31,0,0,0,.15.75.73.73,0,0,0,.59.2Z"/><path class="cls-2" d="M170.28,97.57V89.64h1.16v7.93Z"/><polygon class="cls-3" points="19.66 46.46 35.9 45.71 37.45 45.71 19.91 47 19.66 46.46"/><polygon class="cls-3" points="16.5 39.73 20.95 49.22 14.66 43.93 16.5 39.73"/><path class="cls-4" d="M44,40.68,15,36.45s1.84,3.36,2.7,3.28,28.47,3.68,28.47,3.68l-.35-.79Z"/><polygon class="cls-5" points="52.31 15.54 43.95 40.68 46.67 43.38 57.34 11.95 52.31 15.54"/><polygon class="cls-3" points="48.65 46.64 77.34 30.28 76.11 26.32 45.94 42.46 48.65 46.64"/><polygon class="cls-6" points="72.81 28.2 59.44 13.19 59.85 11.95 75.62 26.63 72.81 28.2"/><polygon class="cls-4" points="72.81 28.2 64.98 43.8 70.34 44.47 77.68 25.42 72.81 28.2"/><polygon class="cls-3" points="49.53 41.5 67.16 43.01 47.83 45.14 49.53 41.5"/><rect class="cls-7" x="32.2" y="7.12" width="4.98" height="42.68" transform="translate(-10.14 26.62) rotate(-37.02)"/><polygon class="cls-6" points="50.1 11.95 24.57 15.05 22.47 12.56 50.64 9.45 50.1 11.95"/><polygon class="cls-3" points="46.28 12.4 15.63 32.42 29.08 25.14 51.33 11.12 46.28 12.4"/><polygon class="cls-3" points="41 46.73 33.99 60.98 37.49 60.43 45.35 44.71 41 46.73"/><path class="cls-8" d="M31.74,69a2.54,2.54,0,0,1-1.45-2.07l-.87-8.18a4.76,4.76,0,0,0-3.08-4S21.7,53,18.65,51.93C16.74,51.26,14.38,48,14.38,48s-3.24-5-4.67-7.28A5.58,5.58,0,0,1,9.26,36L19,12A5,5,0,0,1,23.42,8.8c6.63-.53,29.68-2.36,32.81-2.69a8.62,8.62,0,0,1,6.3,2.12S74.61,20.28,77.68,23.3s.91,7.07.91,7.07L71.66,45.14S70.87,48,67.16,48H50.82a3.83,3.83,0,0,0-3.15,1.65L34.82,68.16a2.49,2.49,0,0,1-2,1.07A2.51,2.51,0,0,1,31.74,69ZM74.56,27.23,58.21,11,23.58,13.78,13.84,37.93,19.65,47s8.21,2.87,11.27,4.19a5.62,5.62,0,0,1,3.21,4.68l.41,4L44.72,45.14l0,0L45.52,44a2.49,2.49,0,0,1,2-1H67.16Z"/><path class="cls-8" d="M12.6,39.73a2.5,2.5,0,0,0,1.31-.37L57.56,12.23A2.49,2.49,0,0,0,54.94,8L11.29,35.12a2.49,2.49,0,0,0,1.31,4.61Z"/><path class="cls-8" d="M47.54,48a2.48,2.48,0,0,0,2.37-1.75L61,11.06a2.49,2.49,0,1,0-4.75-1.48l-10.41,33L12.69,36a2.49,2.49,0,0,0-1,4.88l35.34,7.08A2.72,2.72,0,0,0,47.54,48Z"/><polygon class="cls-9" points="24.57 15.05 23.58 13.78 16.21 32.06 24.57 15.05"/><polygon class="cls-10" points="27.63 49.96 42.33 48.59 43.3 47.19 35.9 45.71 19.66 46.99 27.63 49.96"/><polygon class="cls-11" points="56.83 43.01 68.79 36.21 72.81 28.2 51.8 40.2 50.73 43.11 56.83 43.01"/><path class="cls-12" d="M60.49,66.59c-.6-.07-1.15-.12-1.64-.15l-1.43-.07-1.36,0v8c0,1.73,0,3.12.11,4.15a6.6,6.6,0,0,0,.49,2.36,1.92,1.92,0,0,0,1.08,1.07,5.89,5.89,0,0,0,1.94.25,7.72,7.72,0,0,0,1-.08,16.64,16.64,0,0,0,1.81-.39v3a15.31,15.31,0,0,1-2.64.39l-1.58,0a14.33,14.33,0,0,1-3.59-.36,3.34,3.34,0,0,1-2-1.49,7.81,7.81,0,0,1-.93-3.21,51.15,51.15,0,0,1-.24-5.58V55.71h4.6v7.71c.57,0,1.1,0,1.6,0l1.46.08,1.54.11c.53,0,1.14.11,1.83.19v3Z"/><path class="cls-12" d="M66.55,84.87V74.05a54.22,54.22,0,0,1,.23-5.57,7.79,7.79,0,0,1,.94-3.21,3.35,3.35,0,0,1,2-1.49,14.36,14.36,0,0,1,3.6-.36c.31,0,.83,0,1.57,0a14.92,14.92,0,0,1,2.64.38v3a14.15,14.15,0,0,0-1.81-.38,8,8,0,0,0-1-.09,5.89,5.89,0,0,0-1.94.26,1.93,1.93,0,0,0-1.08,1.06A6.71,6.71,0,0,0,71.25,70c-.07,1-.11,2.42-.11,4.15V84.87Z"/><path class="cls-12" d="M90.36,63.42a14.74,14.74,0,0,1,3.45.32,3.4,3.4,0,0,1,2,1.31,6.38,6.38,0,0,1,1,2.86,35.81,35.81,0,0,1,.32,4.91V85.05H92.58v-.44L89.9,85a24.23,24.23,0,0,1-3,.17,13.45,13.45,0,0,1-3.11-.3,4.44,4.44,0,0,1-2-1A3.82,3.82,0,0,1,80.73,82,11,11,0,0,1,80.41,79V78.4a11,11,0,0,1,.32-2.92,3.82,3.82,0,0,1,1.08-1.87,4.44,4.44,0,0,1,2-1,13.45,13.45,0,0,1,3.11-.3,24.23,24.23,0,0,1,3,.17l2.68.34c0-1.45-.09-2.59-.19-3.45a5,5,0,0,0-.56-2,1.82,1.82,0,0,0-1.08-.88A7.19,7.19,0,0,0,89,66.35H87.34c-.51,0-1,0-1.59,0s-1.17.08-1.83.15l-2.28.28v-3c.85-.11,1.6-.2,2.26-.25s1.29-.1,1.93-.13,1.31,0,2,0Zm2.22,18.76V75.25H87.94a2.94,2.94,0,0,0-2.24.68,4.13,4.13,0,0,0-.7,2.51,5.08,5.08,0,0,0,.62,3,2.82,2.82,0,0,0,2.32.78Z"/><path class="cls-12" d="M106.1,85.05h-4.6V63.84h4.6v.09a22.42,22.42,0,0,1,2.67-.39c1-.08,2-.12,3.14-.12a14.46,14.46,0,0,1,3.58.36,3.36,3.36,0,0,1,2.07,1.49,7.65,7.65,0,0,1,.94,3.21,51.07,51.07,0,0,1,.24,5.57v11h-4.6v-9.8c0-2,0-3.61-.11-4.79a8.81,8.81,0,0,0-.47-2.68,1.85,1.85,0,0,0-1.09-1.17,6.09,6.09,0,0,0-2-.26c-.51,0-1,0-1.47,0a11.89,11.89,0,0,0-1.43.18,1.59,1.59,0,0,0-1.1.59,1.92,1.92,0,0,0-.4,1.24Z"/><path class="cls-12" d="M131.89,82.18a2.8,2.8,0,0,0,1.94-.49,2.89,2.89,0,0,0,.49-2,2.59,2.59,0,0,0-.83-2,7.55,7.55,0,0,0-2.09-1.27c-.84-.36-1.74-.69-2.7-1a12.77,12.77,0,0,1-2.7-1.24,6.84,6.84,0,0,1-2.09-2,5.54,5.54,0,0,1-.83-3.2,11.6,11.6,0,0,1,.28-2.81,3.09,3.09,0,0,1,1-1.72,4.64,4.64,0,0,1,2.13-.85,21.18,21.18,0,0,1,3.53-.23c.77,0,1.45,0,2,0s1.19,0,1.77.06,1.18.07,1.79.13l2.06.21v3l-2.28-.28q-1-.11-1.83-.15c-.55,0-1.08,0-1.59,0h-2a2.74,2.74,0,0,0-1.87.64,2.83,2.83,0,0,0-.51,1.92,2.43,2.43,0,0,0,.83,2,7.72,7.72,0,0,0,2.08,1.26c.84.35,1.74.69,2.71,1a14.27,14.27,0,0,1,2.7,1.19,6.67,6.67,0,0,1,2.08,1.87,5,5,0,0,1,.83,3,11.74,11.74,0,0,1-.3,2.9,3.61,3.61,0,0,1-1,1.83,4.16,4.16,0,0,1-2,.93,17.62,17.62,0,0,1-3.3.26h-.94l-2,0L127.55,85c-.57,0-1.15-.07-1.74-.12l-2-.22v-3c.85.12,1.61.21,2.28.28s1.28.12,1.83.15,1.08,0,1.59,0h2.43Z"/><path class="cls-12" d="M159.79,68.4a50.08,50.08,0,0,1,.26,5.65v11h-4.6v-9.8c0-2,0-3.61-.11-4.79a8.81,8.81,0,0,0-.47-2.68,1.85,1.85,0,0,0-1.09-1.17,6.09,6.09,0,0,0-2-.26c-.51,0-1,0-1.47,0a11.89,11.89,0,0,0-1.43.18,1.59,1.59,0,0,0-1.1.59,1.92,1.92,0,0,0-.4,1.24V85.05h-4.6V63.84h4.64v.09a22.54,22.54,0,0,1,2.66-.39c1-.08,2-.12,3.13-.12a17.3,17.3,0,0,1,2.81.19,4.91,4.91,0,0,1,1.91.7,31,31,0,0,1,4-.72,31.4,31.4,0,0,1,3.34-.17,14.46,14.46,0,0,1,3.58.36A3.34,3.34,0,0,1,171,65.27a7.79,7.79,0,0,1,.94,3.21,54.22,54.22,0,0,1,.23,5.57v11h-4.59v-9.8c0-2,0-3.61-.11-4.79a9.13,9.13,0,0,0-.47-2.68,1.86,1.86,0,0,0-1.08-1.17,6.11,6.11,0,0,0-2-.26c-.51,0-1,0-1.47,0a11.73,11.73,0,0,0-1.42.18,1.29,1.29,0,0,0-1,.59A1.76,1.76,0,0,0,159.79,68.4Z"/><rect class="cls-12" x="176.8" y="63.84" width="4.6" height="21.21"/><path class="cls-12" d="M195.34,66.59c-.6-.07-1.15-.12-1.64-.15l-1.43-.07-1.36,0v8c0,1.73,0,3.12.11,4.15a6.6,6.6,0,0,0,.49,2.36,1.92,1.92,0,0,0,1.08,1.07,5.89,5.89,0,0,0,1.94.25,7.72,7.72,0,0,0,1-.08,16.64,16.64,0,0,0,1.81-.39v3a15.31,15.31,0,0,1-2.64.39l-1.58,0a14.33,14.33,0,0,1-3.59-.36,3.34,3.34,0,0,1-2.05-1.49,7.81,7.81,0,0,1-.93-3.21,51.15,51.15,0,0,1-.24-5.58V58.83h4.6v4.59c.57,0,1.1,0,1.6,0l1.46.08,1.54.11c.53,0,1.14.11,1.83.19v3Z"/><path class="cls-12" d="M209.65,63.42a14.74,14.74,0,0,1,3.45.32,3.4,3.4,0,0,1,2,1.31,6.63,6.63,0,0,1,1,2.86,39.33,39.33,0,0,1,.32,4.91V85.05h-4.6v-.44l-2.68.34a24.11,24.11,0,0,1-3,.17,13.36,13.36,0,0,1-3.1-.3,4.39,4.39,0,0,1-2-1A3.76,3.76,0,0,1,200,82a11.4,11.4,0,0,1-.32-2.92V78.4a11.4,11.4,0,0,1,.32-2.92,3.76,3.76,0,0,1,1.09-1.87,4.39,4.39,0,0,1,2-1,13.36,13.36,0,0,1,3.1-.3,24.11,24.11,0,0,1,3,.17l2.68.34c0-1.45-.09-2.59-.19-3.45a5,5,0,0,0-.55-2,1.81,1.81,0,0,0-1.09-.88,7.11,7.11,0,0,0-1.78-.19h-1.62c-.51,0-1,0-1.6,0s-1.16.08-1.83.15l-2.27.28v-3c.85-.11,1.6-.2,2.25-.25s1.3-.1,1.94-.13,1.3,0,2,0Zm2.21,18.76V75.25h-4.64a2.92,2.92,0,0,0-2.23.68,4.06,4.06,0,0,0-.7,2.51,5.09,5.09,0,0,0,.61,3,2.85,2.85,0,0,0,2.32.78Z"/><rect class="cls-12" x="176.8" y="58.83" width="4.6" height="3.42"/><g class="cls-13"><polygon class="cls-14" points="7.31 -34.24 -127.02 283.22 -94.47 321.04 76.2 -75.58 7.31 -34.24"/><polygon class="cls-15" points="260.18 151.02 102.24 -57.36 108.78 -72.99 298.13 133.59 260.18 151.02"/><path class="cls-16" d="M-314.6,637.94c-10.21-5.66-16.33-16.64-16.63-28.3l-2.8-107a62,62,0,0,0-35.83-54.6s-58.36-28.07-96.79-45C-490.76,392.37-518,347.49-518,347.49s-36.82-67.85-53.05-99.16-.95-61.92-.95-61.92l150.38-301.55s18.14-39.51,61.25-36.27c86.48,0,387.3-.08,428.27-1.09,47.94-1.18,79.58,33.94,79.58,33.94S291.58,50.25,328.34,92.56s4.52,92.56,4.52,92.56L227.69,369.62s-13.12,36.09-61.29,32.26L-45.47,385A49.91,49.91,0,0,0-88,403.19l-185.7,227a32.39,32.39,0,0,1-27.65,11.78A32.63,32.63,0,0,1-314.6,637.94Zm598.45-497.7L88.5-87.74l-451.95,1.08L-514.63,216.49-448.58,340s103.4,45.64,141.79,66,36.73,64,36.73,64l1.35,51.72,147.14-179.83.39-.47,11-13a32.41,32.41,0,0,1,27.25-11.31l254.42,20.22Z"/><path class="cls-16" d="M-532.57,238.56a32.19,32.19,0,0,0,17.37-3.5l594-306.84a32.39,32.39,0,0,0,14-43.64,32.39,32.39,0,0,0-43.64-14l-594,306.83a32.41,32.41,0,0,0-14,43.65A32.39,32.39,0,0,0-532.57,238.56Z"/><path class="cls-16" d="M-88,381.67a32.41,32.41,0,0,0,32.61-20.22L124.51-83.33a32.4,32.4,0,0,0-18-42.15,32.41,32.41,0,0,0-42.15,18l-169,417.73L-527.56,190a32.41,32.41,0,0,0-40,22.31,32.41,32.41,0,0,0,22.31,40l451,128.23A32.47,32.47,0,0,0-88,381.67Z"/></g></svg>