<svg id="Layer_1" data-name="Layer 1" xmlns="http://www.w3.org/2000/svg" xmlns:xlink="http://www.w3.org/1999/xlink" viewBox="0 0 345.34 326.37"><defs><style>.cls-1{fill:#fff;}.cls-2{fill:gray;}.cls-3{fill:#832403;}.cls-4{fill:#e64301;}.cls-5{fill:#d33e02;}.cls-6{fill:#db4001;}.cls-7{fill:url(#linear-gradient);}.cls-8{fill:#ff4e00;}.cls-9{fill:#bb3502;}.cls-10{fill:url(#linear-gradient-2);}.cls-11{fill:url(#linear-gradient-3);}</style><linearGradient id="linear-gradient" x1="-1060.9" y1="102.18" x2="-1007.72" y2="32.53" gradientTransform="matrix(-0.8, -0.6, -0.6, 0.8, -712.97, -608.85)" gradientUnits="userSpaceOnUse"><stop offset="0" stop-color="#ff4e00"/><stop offset="1" stop-color="#802403"/></linearGradient><linearGradient id="linear-gradient-2" x1="-1055.42" y1="115.64" x2="-995.14" y2="115.64" gradientTransform="matrix(-1, 0, 0, 1, -961.15, 0)" xlink:href="#linear-gradient"/><linearGradient id="linear-gradient-3" x1="-1080.99" y1="102.02" x2="-1133.91" y2="69.45" gradientTransform="matrix(-1, 0, 0, 1, -961.15, 0)" xlink:href="#linear-gradient"/></defs><title>Artboard 5 cópia 3</title><path class="cls-1" d="M138.08,163.45c-1.52-.18-2.91-.31-4.18-.38s-2.47-.13-3.63-.17-2.32-.05-3.47-.05v20.39c0,4.42.09,7.94.27,10.58a17.34,17.34,0,0,0,1.25,6,4.91,4.91,0,0,0,2.76,2.71,14.78,14.78,0,0,0,4.94.66,22.87,22.87,0,0,0,2.55-.22,40.45,40.45,0,0,0,4.61-1v7.6a39.08,39.08,0,0,1-6.73,1c-1.88.07-3.22.11-4,.11a36.72,36.72,0,0,1-9.17-.92,8.5,8.5,0,0,1-5.21-3.8,19.74,19.74,0,0,1-2.38-8.19,132.72,132.72,0,0,1-.6-14.21V135.73H126.8v19.63c1.44,0,2.8,0,4.07.11l3.74.22q1.84.1,3.9.27c1.38.11,2.93.27,4.67.49V164Z"/><path class="cls-1" d="M153.53,210.07V182.48a133,133,0,0,1,.6-14.21,19.82,19.82,0,0,1,2.39-8.19,8.5,8.5,0,0,1,5.2-3.79,36.24,36.24,0,0,1,9.17-.93c.8,0,2.13,0,4,.11a38.24,38.24,0,0,1,6.73,1V164a40,40,0,0,0-4.61-1,20.66,20.66,0,0,0-2.55-.22,15.08,15.08,0,0,0-4.94.65,4.94,4.94,0,0,0-2.76,2.71,17.39,17.39,0,0,0-1.25,6q-.27,4-.27,10.58v27.26Z"/><path class="cls-1" d="M214.25,155.36a38.09,38.09,0,0,1,8.79.82,8.67,8.67,0,0,1,5.2,3.36,16.56,16.56,0,0,1,2.55,7.27,97,97,0,0,1,.82,12.53v31.18H219.89v-1.13l-6.83.87a59.92,59.92,0,0,1-7.6.43,34.34,34.34,0,0,1-7.92-.76,11.27,11.27,0,0,1-5.1-2.55,9.75,9.75,0,0,1-2.76-4.77,28.84,28.84,0,0,1-.82-7.43v-1.63a28.84,28.84,0,0,1,.82-7.43,9.75,9.75,0,0,1,2.76-4.77,11.27,11.27,0,0,1,5.1-2.55,34.34,34.34,0,0,1,7.92-.76,59.92,59.92,0,0,1,7.6.43l6.83.87q-.1-5.53-.49-8.79a12.78,12.78,0,0,0-1.41-5,4.58,4.58,0,0,0-2.76-2.22,17.17,17.17,0,0,0-4.56-.49h-4.12c-1.3,0-2.66,0-4.07.11s-3,.2-4.67.38-3.63.41-5.8.7v-7.59q3.26-.44,5.75-.65c1.66-.15,3.31-.26,4.94-.33s3.32-.11,5.1-.11Zm5.64,47.85V185.52H208.07q-4.12,0-5.7,1.74c-1.05,1.16-1.64,3.29-1.79,6.4,0,3.69.53,6.2,1.57,7.54s3,2,5.92,2Z"/><path class="cls-1" d="M254.36,210.52H242.64V156.45h11.72v.22a55.18,55.18,0,0,1,6.8-1c2.51-.22,5.17-.33,8-.33a36.61,36.61,0,0,1,9.15.93,8.56,8.56,0,0,1,5.28,3.79,20,20,0,0,1,2.39,8.19,133,133,0,0,1,.6,14.21v28H274.86v-25q0-7.7-.27-12.2a23.2,23.2,0,0,0-1.2-6.84,4.75,4.75,0,0,0-2.78-3,15.75,15.75,0,0,0-5-.65c-1.31,0-2.56,0-3.76.11a31,31,0,0,0-3.65.43,4,4,0,0,0-2.78,1.52,4.86,4.86,0,0,0-1,3.15Z"/><path class="cls-1" d="M320.11,203.21q3.69,0,4.94-1.25t1.25-5.05a6.58,6.58,0,0,0-2.12-5.15,18.91,18.91,0,0,0-5.32-3.25c-2.13-.91-4.43-1.76-6.88-2.55a32.43,32.43,0,0,1-6.89-3.15,17.38,17.38,0,0,1-5.32-5,14,14,0,0,1-2.12-8.14,30.22,30.22,0,0,1,.71-7.16,7.91,7.91,0,0,1,2.66-4.39,11.7,11.7,0,0,1,5.42-2.17,54.86,54.86,0,0,1,9-.6c1.95,0,3.69,0,5.2.06s3,.09,4.51.16,3,.18,4.55.33,3.31.32,5.26.54V164q-3.25-.43-5.8-.7c-1.7-.18-3.25-.31-4.66-.38s-2.77-.11-4.07-.11h-5c-2.32.14-3.91.69-4.78,1.63s-1.3,2.56-1.3,4.88a6.28,6.28,0,0,0,2.12,5,19.65,19.65,0,0,0,5.31,3.2c2.14.9,4.43,1.75,6.89,2.55a35.38,35.38,0,0,1,6.89,3,16.93,16.93,0,0,1,5.32,4.77,12.86,12.86,0,0,1,2.11,7.7,29.82,29.82,0,0,1-.76,7.38,9.19,9.19,0,0,1-2.66,4.66,10.49,10.49,0,0,1-5.2,2.39,45.19,45.19,0,0,1-8.41.65h-2.39c-1.88,0-3.58,0-5.1-.05s-3-.09-4.44-.17-2.93-.18-4.45-.32l-5.21-.54V202q3.25.44,5.8.71c1.7.18,3.26.31,4.67.38s2.77.11,4.07.11h6.18Z"/><path class="cls-1" d="M158.27,241.93a127.11,127.11,0,0,1,.65,14.43v28H147.21v-25q0-7.69-.27-12.2a23.88,23.88,0,0,0-1.2-6.84,4.78,4.78,0,0,0-2.78-3,15.47,15.47,0,0,0-5-.65c-1.31,0-2.57,0-3.77.11a31.23,31.23,0,0,0-3.65.43,4.06,4.06,0,0,0-2.78,1.52,4.91,4.91,0,0,0-1,3.14V284.4H115V230.33h11.82v.21a55.2,55.2,0,0,1,6.78-1q3.75-.33,8-.33a44,44,0,0,1,7.16.49,12.42,12.42,0,0,1,4.88,1.79,81.26,81.26,0,0,1,10.25-1.84,84.42,84.42,0,0,1,8.52-.44,36.86,36.86,0,0,1,9.11.92,8.57,8.57,0,0,1,5.26,3.8,20,20,0,0,1,2.39,8.19,136,136,0,0,1,.59,14.21v28H178v-25q0-7.69-.27-12.2a23.2,23.2,0,0,0-1.2-6.84,4.73,4.73,0,0,0-2.76-3,15.31,15.31,0,0,0-5-.65c-1.3,0-2.55,0-3.75.11a30.9,30.9,0,0,0-3.63.43,3.41,3.41,0,0,0-2.5,1.52A4.61,4.61,0,0,0,158.27,241.93Z"/><rect class="cls-1" x="202.54" y="230.33" width="11.72" height="54.08"/><path class="cls-1" d="M249.8,237.32c-1.52-.17-2.91-.3-4.18-.38s-2.47-.12-3.63-.16-2.31-.05-3.47-.05v20.39c0,4.42.09,7.94.27,10.58a17.34,17.34,0,0,0,1.25,6,4.91,4.91,0,0,0,2.76,2.71,14.82,14.82,0,0,0,4.94.65,22.34,22.34,0,0,0,2.55-.21,40.45,40.45,0,0,0,4.61-1v7.6a39.08,39.08,0,0,1-6.73,1c-1.88.07-3.21.11-4,.11a36.78,36.78,0,0,1-9.17-.92,8.51,8.51,0,0,1-5.2-3.8,19.77,19.77,0,0,1-2.39-8.19,132.72,132.72,0,0,1-.6-14.21v-39.9h11.72v11.69c1.45,0,2.8,0,4.07.11l3.74.22c1.23.07,2.53.16,3.91.27s2.92.27,4.66.49v7.59C253,237.7,251.32,237.51,249.8,237.32Z"/><path class="cls-2" d="M125.67,303.25a31.45,31.45,0,0,1,.16,3.58v6.71h-2.9v-6c0-1.27,0-2.28-.07-3a5.77,5.77,0,0,0-.29-1.7,1.24,1.24,0,0,0-.69-.74,4.13,4.13,0,0,0-1.25-.16q-.48,0-.93,0a6.91,6.91,0,0,0-.9.11,1,1,0,0,0-.69.37,1.24,1.24,0,0,0-.26.78v10.29H115V300.38h2.93v.05a12.56,12.56,0,0,1,1.68-.24c.62-.06,1.27-.08,2-.08a11.23,11.23,0,0,1,1.78.12,3.21,3.21,0,0,1,1.21.44,20,20,0,0,1,2.54-.45,18.64,18.64,0,0,1,2.11-.11,8.64,8.64,0,0,1,2.25.23,2.09,2.09,0,0,1,1.31.94,5,5,0,0,1,.59,2,32.48,32.48,0,0,1,.15,3.52v6.71h-2.91v-6c0-1.27,0-2.28-.06-3a6.07,6.07,0,0,0-.3-1.7,1.19,1.19,0,0,0-.69-.74,4,4,0,0,0-1.23-.16q-.48,0-.93,0a7.35,7.35,0,0,0-.9.11.84.84,0,0,0-.62.37A1.19,1.19,0,0,0,125.67,303.25Z"/><path class="cls-2" d="M142.36,300.11a9.29,9.29,0,0,1,2.18.2,2.17,2.17,0,0,1,1.29.83,4.2,4.2,0,0,1,.63,1.8,24.1,24.1,0,0,1,.2,3.11v7.49h-2.9v-.05l-1.69.22a15.42,15.42,0,0,1-1.89.1,9,9,0,0,1-2-.18A2.79,2.79,0,0,1,137,313a2.47,2.47,0,0,1-.69-1.18,7.27,7.27,0,0,1-.2-1.84v-.4a7.27,7.27,0,0,1,.2-1.84,2.51,2.51,0,0,1,.69-1.19,2.88,2.88,0,0,1,1.26-.63,8.89,8.89,0,0,1,2-.19,15.28,15.28,0,0,1,1.89.11l1.69.22c0-.92-.06-1.64-.12-2.18a3.35,3.35,0,0,0-.35-1.24,1.17,1.17,0,0,0-.69-.55,4.28,4.28,0,0,0-1.13-.12h-1l-1,0-1.15.09-1.44.18v-1.88c.54-.07,1-.13,1.43-.16l1.22-.09,1.26,0Zm1.4,11.85v-4.38h-2.93a1.84,1.84,0,0,0-1.41.43,2.6,2.6,0,0,0-.45,1.58,3.18,3.18,0,0,0,.39,1.87,1.79,1.79,0,0,0,1.47.5Z"/><path class="cls-2" d="M149.54,313.54v-6.71c0-1.47.05-2.65.14-3.52a4.84,4.84,0,0,1,.6-2,2,2,0,0,1,1.29-.94,8.65,8.65,0,0,1,2.27-.23l1,0a9.27,9.27,0,0,1,1.67.25v1.88a8.2,8.2,0,0,0-1.15-.24,4.6,4.6,0,0,0-.63-.06,3.91,3.91,0,0,0-1.22.16,1.19,1.19,0,0,0-.68.68,4,4,0,0,0-.31,1.49c0,.65-.07,1.52-.07,2.62v6.63Z"/><path class="cls-2" d="M159,293.66h2.91V305c.37-.29.77-.62,1.19-1s.84-.74,1.25-1.14.8-.8,1.17-1.22a11.65,11.65,0,0,0,1-1.22h3.69a13.22,13.22,0,0,1-1.13,1.45c-.47.52-1,1-1.49,1.56s-1.06,1-1.58,1.47-1,.86-1.37,1.19c.63.59,1.19,1.18,1.7,1.76s1,1.17,1.39,1.77.84,1.22,1.23,1.87.78,1.34,1.19,2.09h-3.3c-.34-.68-.68-1.33-1-1.94s-.71-1.21-1.09-1.76a16.21,16.21,0,0,0-1.27-1.6,16.39,16.39,0,0,0-1.51-1.49v6.79H159Z"/><path class="cls-2" d="M181.87,313.54c-.54.08-1,.13-1.43.17l-1.22.08-1.28,0h-1.58a9.29,9.29,0,0,1-2.18-.2,2.11,2.11,0,0,1-1.29-.83,4,4,0,0,1-.63-1.8,22.41,22.41,0,0,1-.2-3.11v-1c0-1.47.05-2.65.14-3.52a4.84,4.84,0,0,1,.6-2,2,2,0,0,1,1.29-.94,8.65,8.65,0,0,1,2.27-.23h1.82a8.67,8.67,0,0,1,2.26.23,2.07,2.07,0,0,1,1.3.94,4.84,4.84,0,0,1,.6,2c.09.87.14,2.05.14,3.52v1H175c0,.92.06,1.64.12,2.18a3.17,3.17,0,0,0,.35,1.24,1.18,1.18,0,0,0,.68.55,4.38,4.38,0,0,0,1.13.12h1l1,0c.35,0,.74-.05,1.16-.09s.9-.1,1.44-.18ZM179.58,306q0-1.36-.12-2.16a3.17,3.17,0,0,0-.35-1.23,1.18,1.18,0,0,0-.68-.55,4.38,4.38,0,0,0-1.13-.12h-.06a4.38,4.38,0,0,0-1.13.12,1.18,1.18,0,0,0-.68.55,3.17,3.17,0,0,0-.35,1.23q-.09.79-.12,2.16Z"/><path class="cls-2" d="M190.87,302.11c-.38,0-.72-.08-1-.09s-.61,0-.9,0l-.86,0V307c0,1.1,0,2,.07,2.62a4.48,4.48,0,0,0,.31,1.5,1.22,1.22,0,0,0,.69.67,3.6,3.6,0,0,0,1.22.16c.14,0,.35,0,.63,0a9.89,9.89,0,0,0,1.14-.25v1.88a9.18,9.18,0,0,1-1.66.25l-1,0a9.17,9.17,0,0,1-2.27-.22,2.15,2.15,0,0,1-1.29-.95,4.85,4.85,0,0,1-.59-2,32.81,32.81,0,0,1-.15-3.53V295.24h2.9v4.87l1,0,.93.06,1,.07c.34,0,.72.06,1.15.12v1.88Z"/><path class="cls-2" d="M194.5,295.92a5.23,5.23,0,0,1,0-.77.81.81,0,0,1,.16-.43.58.58,0,0,1,.37-.2,2.93,2.93,0,0,1,.65-.06h.78a2.93,2.93,0,0,1,.65.06.58.58,0,0,1,.37.2.9.9,0,0,1,.16.43,5.23,5.23,0,0,1,0,.77v.24a1.58,1.58,0,0,1-.23,1.06,1.48,1.48,0,0,1-1,.23h-.78a1.51,1.51,0,0,1-1-.23,1.65,1.65,0,0,1-.22-1.06Zm.16,17.62V300.38h2.9v13.16Z"/><path class="cls-2" d="M203.71,313.54h-2.9V300.38h2.9v.05a13,13,0,0,1,1.69-.24c.62-.06,1.28-.08,2-.08a8.8,8.8,0,0,1,2.27.23,2.07,2.07,0,0,1,1.3.94,4.84,4.84,0,0,1,.6,2,32.48,32.48,0,0,1,.15,3.52v6.71h-2.91v-6c0-1.27,0-2.28-.06-3a6.07,6.07,0,0,0-.3-1.7,1.19,1.19,0,0,0-.69-.74,4.1,4.1,0,0,0-1.24-.16c-.33,0-.64,0-.94,0a7.35,7.35,0,0,0-.9.11,1,1,0,0,0-.69.37,1.24,1.24,0,0,0-.26.78Z"/><path class="cls-2" d="M221.83,319.73h-1.6q-.66,0-1.26,0l-1.23-.08-1.42-.16v-1.88c.54.07,1,.13,1.44.17s.8.08,1.15.09l1,0h1a4.33,4.33,0,0,0,1.13-.12,1.11,1.11,0,0,0,.68-.55,3.17,3.17,0,0,0,.35-1.24,19.15,19.15,0,0,0,.12-2.17v-.25c-.55.09-1.17.16-1.85.21s-1.4.06-2.15.06a11.38,11.38,0,0,1-2.53-.22,2.36,2.36,0,0,1-1.43-1,4.73,4.73,0,0,1-.66-2.11,32.56,32.56,0,0,1-.16-3.68c0-1.47.05-2.65.14-3.52a4.84,4.84,0,0,1,.6-2,2,2,0,0,1,1.29-.94,8.65,8.65,0,0,1,2.27-.23,21.84,21.84,0,0,1,2.52.13,11.55,11.55,0,0,1,2,.38v-.24h2.91v13.41a25.86,25.86,0,0,1-.2,3.1,4.07,4.07,0,0,1-.64,1.8,2.11,2.11,0,0,1-1.29.83A9.12,9.12,0,0,1,221.83,319.73Zm1.39-16.29a1.2,1.2,0,0,0-.25-.78,1.06,1.06,0,0,0-.69-.4,10.77,10.77,0,0,0-1.34-.23,11,11,0,0,0-1.32-.07,4,4,0,0,0-1.23.16,1.19,1.19,0,0,0-.69.74,5.7,5.7,0,0,0-.29,1.69c0,.74-.07,1.74-.07,3,0,1,0,1.83,0,2.42a3.31,3.31,0,0,0,.29,1.32,1,1,0,0,0,.67.55,5.45,5.45,0,0,0,1.22.11c.54,0,1,0,1.46,0s.86-.08,1.25-.14a1.09,1.09,0,0,0,.69-.39,1.14,1.14,0,0,0,.25-.76Z"/><path class="cls-2" d="M244.54,293.66h2.9v19.88h-2.9q-.84.13-1.86.21c-.68,0-1.4.06-2.15.06a11.22,11.22,0,0,1-2.52-.22,2.36,2.36,0,0,1-1.44-1,4.86,4.86,0,0,1-.66-2.11,41.89,41.89,0,0,1,0-7.2,4.71,4.71,0,0,1,.59-2,2,2,0,0,1,1.29-.94,8.65,8.65,0,0,1,2.27-.23,21.84,21.84,0,0,1,2.52.13,11.89,11.89,0,0,1,2,.38Zm0,9.78a1.2,1.2,0,0,0-.26-.78,1.06,1.06,0,0,0-.68-.4,11.23,11.23,0,0,0-1.35-.23,10.91,10.91,0,0,0-1.31-.07,4.05,4.05,0,0,0-1.24.16,1.21,1.21,0,0,0-.69.74,5.7,5.7,0,0,0-.29,1.69c-.05.74-.07,1.74-.07,3,0,1,0,1.83,0,2.42a3.31,3.31,0,0,0,.29,1.32,1,1,0,0,0,.67.55,5.45,5.45,0,0,0,1.22.11c.54,0,1,0,1.47,0s.85-.08,1.25-.14a1.09,1.09,0,0,0,.68-.39,1.15,1.15,0,0,0,.26-.76Z"/><path class="cls-2" d="M250.53,295.92a5.23,5.23,0,0,1,0-.77.9.9,0,0,1,.16-.43.58.58,0,0,1,.37-.2,3,3,0,0,1,.66-.06h.77a2.93,2.93,0,0,1,.65.06.58.58,0,0,1,.37.2.81.81,0,0,1,.16.43,5.23,5.23,0,0,1,0,.77v.24a1.65,1.65,0,0,1-.22,1.06,1.51,1.51,0,0,1-1,.23h-.77a1.49,1.49,0,0,1-1-.23,1.58,1.58,0,0,1-.23-1.06Zm.16,17.62V300.38h2.9v13.16Z"/><path class="cls-2" d="M263.94,319.73h-1.6q-.66,0-1.26,0l-1.23-.08-1.42-.16v-1.88l1.44.17c.42.05.8.08,1.15.09l1,0h1a4.33,4.33,0,0,0,1.13-.12,1.13,1.13,0,0,0,.69-.55,3.35,3.35,0,0,0,.35-1.24c.06-.53.1-1.26.12-2.17v-.25q-.84.13-1.86.21c-.68,0-1.39.06-2.15.06a11.28,11.28,0,0,1-2.52-.22,2.36,2.36,0,0,1-1.44-1,4.86,4.86,0,0,1-.66-2.11,41.89,41.89,0,0,1,0-7.2,4.85,4.85,0,0,1,.59-2,2,2,0,0,1,1.29-.94,8.65,8.65,0,0,1,2.27-.23,22,22,0,0,1,2.53.13,11.76,11.76,0,0,1,2,.38v-.24h2.9v13.41a25.86,25.86,0,0,1-.2,3.1,4.2,4.2,0,0,1-.63,1.8,2.17,2.17,0,0,1-1.29.83A9.22,9.22,0,0,1,263.94,319.73Zm1.4-16.29a1.2,1.2,0,0,0-.26-.78,1.06,1.06,0,0,0-.68-.4,11.63,11.63,0,0,0-2.66-.3,4.05,4.05,0,0,0-1.24.16,1.24,1.24,0,0,0-.69.74,5.7,5.7,0,0,0-.29,1.69c0,.74-.07,1.74-.07,3,0,1,0,1.83.06,2.42a3.34,3.34,0,0,0,.28,1.32,1,1,0,0,0,.67.55,5.51,5.51,0,0,0,1.22.11c.54,0,1,0,1.47,0s.85-.08,1.25-.14a1.09,1.09,0,0,0,.68-.39,1.15,1.15,0,0,0,.26-.76Z"/><path class="cls-2" d="M271.3,295.92a7.15,7.15,0,0,1,0-.77.9.9,0,0,1,.16-.43.61.61,0,0,1,.38-.2,2.87,2.87,0,0,1,.65-.06h.77a3,3,0,0,1,.66.06.61.61,0,0,1,.37.2.9.9,0,0,1,.16.43,7.15,7.15,0,0,1,0,.77v.24a1.64,1.64,0,0,1-.23,1.06,1.49,1.49,0,0,1-1,.23h-.77a1.49,1.49,0,0,1-1-.23,1.64,1.64,0,0,1-.23-1.06Zm.16,17.62V300.38h2.91v13.16Z"/><path class="cls-2" d="M283.15,302.11c-.37,0-.72-.08-1-.09s-.61,0-.9,0l-.86,0V307c0,1.1,0,2,.07,2.62a4,4,0,0,0,.31,1.5,1.24,1.24,0,0,0,.68.67,3.64,3.64,0,0,0,1.22.16c.15,0,.36,0,.64,0a10.89,10.89,0,0,0,1.14-.25v1.88a9.27,9.27,0,0,1-1.67.25l-1,0a9.17,9.17,0,0,1-2.27-.22,2.1,2.1,0,0,1-1.29-.95,4.7,4.7,0,0,1-.59-2,32.81,32.81,0,0,1-.15-3.53V295.24h2.9v4.87l1,0,.92.06,1,.07c.34,0,.73.06,1.16.12v1.88Z"/><path class="cls-2" d="M292.8,300.11a9.29,9.29,0,0,1,2.18.2,2.17,2.17,0,0,1,1.29.83,4.2,4.2,0,0,1,.63,1.8,24.1,24.1,0,0,1,.2,3.11v7.49h-2.9v-.05l-1.69.22a15.36,15.36,0,0,1-1.88.1,9,9,0,0,1-2-.18,2.79,2.79,0,0,1-1.26-.64,2.38,2.38,0,0,1-.68-1.18,6.8,6.8,0,0,1-.21-1.84v-.4a6.8,6.8,0,0,1,.21-1.84,2.42,2.42,0,0,1,.68-1.19,2.88,2.88,0,0,1,1.26-.63,8.92,8.92,0,0,1,2-.19,15.24,15.24,0,0,1,1.88.11l1.69.22c0-.92-.06-1.64-.12-2.18a3.17,3.17,0,0,0-.35-1.24,1.17,1.17,0,0,0-.69-.55,4.25,4.25,0,0,0-1.12-.12h-1l-1,0-1.16.09-1.44.18v-1.88c.54-.07,1-.13,1.43-.16l1.22-.09,1.26,0ZM294.2,312v-4.38h-2.93a1.84,1.84,0,0,0-1.41.43,2.54,2.54,0,0,0-.44,1.58,3.18,3.18,0,0,0,.39,1.87,1.77,1.77,0,0,0,1.46.5Z"/><path class="cls-2" d="M300.17,313.54V293.66h2.9v19.88Z"/><polygon class="cls-3" points="33.99 112.14 75.41 110.22 79.34 110.22 34.64 113.51 33.99 112.14"/><polygon class="cls-3" points="25.94 94.98 37.3 119.18 21.27 105.68 25.94 94.98"/><path class="cls-4" d="M95.92,97.41,22.15,86.61S26.84,95.2,29,95s72.58,9.38,72.58,9.38l-.9-2Z"/><polygon class="cls-5" points="117.24 33.31 95.92 97.41 102.87 104.3 130.05 24.17 117.24 33.31"/><polygon class="cls-3" points="107.9 112.6 181.04 70.9 177.9 60.79 101 101.94 107.9 112.6"/><polygon class="cls-6" points="169.51 65.58 135.42 27.32 136.46 24.17 176.65 61.58 169.51 65.58"/><polygon class="cls-4" points="169.51 65.58 149.54 105.35 163.2 107.06 181.92 58.5 169.51 65.58"/><polygon class="cls-3" points="110.14 99.5 155.09 103.34 105.83 108.78 110.14 99.5"/><rect class="cls-7" x="65.97" y="11.86" width="12.7" height="108.79" transform="translate(-25.31 56.89) rotate(-37.02)"/><polygon class="cls-6" points="111.6 24.17 46.52 32.07 41.16 25.72 112.99 17.78 111.6 24.17"/><polygon class="cls-3" points="101.86 25.31 23.73 76.35 58.03 57.8 114.73 22.05 101.86 25.31"/><polygon class="cls-3" points="88.41 112.83 70.53 149.14 79.47 147.75 99.5 107.67 88.41 112.83"/><path class="cls-8" d="M64.79,169.62a6.52,6.52,0,0,1-3.69-5.27l-2.21-20.86A12.14,12.14,0,0,0,51,133.38s-11.83-4.57-19.6-7.29c-4.88-1.71-10.9-10-10.9-10S12.29,103.35,8.63,97.49A14.36,14.36,0,0,1,7.49,85.41L32.18,24.17s2.93-8,11.41-8c16.89-1.34,75.65-6,83.64-6.86,9.35-1,16.07,5.4,16.07,5.4S174.08,45.4,181.92,53.1s2.32,18,2.32,18l-17.68,37.67s-2,7.26-11.48,7.26H113.44a9.79,9.79,0,0,0-8,4.2L72.65,167.46a6.37,6.37,0,0,1-7.86,2.16ZM174,63.1l-41.7-41.5L44,28.83,19.17,90.39,34,113.49s20.91,7.31,28.72,10.68,8.17,11.94,8.17,11.94L72,146.19l26-37.41a.36.36,0,0,1,.07-.1l2-2.71a6.37,6.37,0,0,1,5.15-2.63h50Z"/><path class="cls-8" d="M16,95a6.28,6.28,0,0,0,3.34-1L130.62,24.87a6.35,6.35,0,1,0-6.69-10.79L12.66,83.24A6.35,6.35,0,0,0,16,95Z"/><path class="cls-8" d="M105.08,116a6.35,6.35,0,0,0,6-4.46L139.37,21.9a6.35,6.35,0,0,0-12.12-3.79l-26.53,84.23L16.23,85.41a6.35,6.35,0,1,0-2.49,12.45l90.08,18A6,6,0,0,0,105.08,116Z"/><polygon class="cls-9" points="46.52 32.07 44 28.83 25.2 75.44 46.52 32.07"/><polygon class="cls-10" points="54.33 121.06 91.8 117.57 94.27 114 75.41 110.22 33.99 113.49 54.33 121.06"/><polygon class="cls-11" points="128.75 103.34 159.26 86 169.51 65.58 115.94 96.19 113.22 103.61 128.75 103.34"/><path class="cls-1" d="M286.29,229.24a38.09,38.09,0,0,1,8.79.82,8.7,8.7,0,0,1,5.21,3.36,16.82,16.82,0,0,1,2.55,7.27,97.29,97.29,0,0,1,.81,12.53V284.4H291.93v-1.13l-6.83.87a61.59,61.59,0,0,1-7.6.43,34.19,34.19,0,0,1-7.91-.76,11.27,11.27,0,0,1-5.1-2.55,9.68,9.68,0,0,1-2.77-4.77,28.89,28.89,0,0,1-.81-7.43v-1.63a28.84,28.84,0,0,1,.81-7.43,9.76,9.76,0,0,1,2.77-4.78,11.26,11.26,0,0,1,5.1-2.54,34.19,34.19,0,0,1,7.91-.76,59.69,59.69,0,0,1,7.6.43l6.83.87q-.1-5.53-.49-8.79a12.78,12.78,0,0,0-1.41-5,4.58,4.58,0,0,0-2.76-2.22,17.17,17.17,0,0,0-4.56-.49h-4.12c-1.3,0-2.66,0-4.07.11s-3,.2-4.66.38-3.64.41-5.81.7v-7.59q3.26-.44,5.75-.65c1.67-.15,3.31-.26,4.94-.33s3.32-.11,5.1-.11Zm5.64,47.84V259.4H280.11q-4.12,0-5.7,1.74c-1.05,1.16-1.64,3.29-1.79,6.4q0,5.54,1.58,7.54c1,1.34,3,2,5.91,2Z"/><rect class="cls-1" x="202.54" y="217.55" width="11.72" height="8.72"/></svg>